<?xml version="1.0" standalone="no"?>
<!DOCTYPE svg PUBLIC "-//W3C//DTD SVG 20010904//EN"
 "http://www.w3.org/TR/2001/REC-SVG-20010904/DTD/svg10.dtd">
<svg version="1.0" xmlns="http://www.w3.org/2000/svg"
 width="300.000000pt" height="300.000000pt" viewBox="0 0 300.000000 300.000000"
 preserveAspectRatio="xMidYMid meet">
<metadata>
Created by potrace 1.10, written by Peter Selinger 2001-2011
</metadata>
<g transform="translate(0.000000,300.000000) scale(0.100000,-0.100000)"
fill="#000000" stroke="none">
<path d="M1404 2169 c-191 -24 -372 -138 -481 -302 -43 -65 -99 -194 -89 -204
9 -9 26 8 26 25 0 9 19 55 42 102 81 163 243 294 428 345 96 27 263 24 355 -5
101 -32 195 -84 264 -146 58 -53 140 -163 160 -217 9 -23 31 -38 31 -22 0 16
-54 108 -94 162 -109 144 -270 236 -462 263 -83 11 -91 11 -180 -1z"/>
<path d="M2252 2143 c-1 -23 -5 -50 -8 -60 -5 -17 -5 -17 6 0 6 9 9 36 7 60
l-4 42 -1 -42z"/>
<path d="M1400 2119 c-228 -39 -411 -184 -494 -389 -30 -73 -29 -70 -16 -70 6
0 10 7 10 16 0 8 17 50 37 92 28 59 56 96 118 158 129 129 263 184 445 184
166 0 305 -53 422 -160 60 -54 148 -174 148 -200 0 -5 5 -10 11 -10 22 0 -59
127 -126 195 -115 116 -253 179 -417 189 -45 3 -108 1 -138 -5z"/>
<path d="M2212 1753 c-7 -12 -7 -25 -1 -36 9 -16 -9 -17 -298 -17 -342 0 -341
0 -369 -66 -16 -39 -18 -74 -4 -74 6 0 10 11 10 25 0 38 27 84 53 90 12 2 162
6 333 7 337 3 348 5 342 57 -4 33 -51 43 -66 14z m45 -27 c-4 -9 -11 -16 -17
-16 -17 0 -24 31 -9 41 18 11 34 -5 26 -25z"/>
<path d="M808 1568 c7 -7 12 -37 12 -68 0 -31 -5 -61 -12 -68 -9 -9 -5 -12 20
-12 30 0 31 1 22 26 -14 35 -13 44 5 44 9 0 23 -16 32 -35 15 -32 20 -35 62
-35 33 0 42 3 34 11 -16 16 -4 39 21 39 18 1 19 2 6 13 -16 12 -16 47 -1 47
12 0 34 -86 26 -99 -4 -7 5 -11 23 -11 l29 0 -31 80 c-17 44 -34 80 -37 80 -4
0 -20 -32 -36 -72 -16 -39 -34 -73 -40 -75 -6 -2 -20 12 -31 30 -18 31 -18 36
-5 50 32 31 -11 67 -80 67 -24 0 -28 -3 -19 -12z m77 -38 c0 -16 -6 -26 -17
-28 -14 -3 -18 3 -18 28 0 25 4 31 18 28 11 -2 17 -12 17 -28z"/>
<path d="M1116 1558 c-19 -27 -7 -52 35 -73 19 -10 29 -22 27 -33 -5 -25 -34
-26 -57 -1 -21 23 -21 23 -21 2 0 -41 92 -43 105 -2 8 23 -8 45 -47 65 -15 8
-28 21 -28 28 0 23 29 27 50 6 19 -19 20 -19 20 -1 0 36 -61 43 -84 9z"/>
<path d="M1225 1563 c3 -8 5 -35 5 -59 0 -51 25 -84 64 -84 39 0 56 25 56 84
0 28 5 57 12 64 9 9 6 12 -17 12 -23 0 -26 -3 -17 -12 13 -13 16 -85 6 -112
-4 -9 -18 -16 -34 -16 -16 0 -30 7 -34 16 -10 26 -7 99 5 111 9 9 4 12 -20 11
-23 -1 -30 -5 -26 -15z"/>
<path d="M1446 1565 c-9 -9 -16 -20 -16 -25 0 -13 80 -111 96 -117 16 -6 44
13 44 30 0 8 -3 8 -11 0 -6 -6 -18 -9 -25 -6 -11 4 -11 10 -2 26 6 12 16 25
22 29 6 4 -2 8 -18 8 -23 0 -26 -3 -17 -13 17 -21 0 -29 -21 -10 -17 15 -17
17 -1 35 32 35 -17 76 -51 43z m41 -29 c-4 -9 -11 -16 -17 -16 -11 0 -14 33
-3 44 11 10 26 -11 20 -28z"/>
<path d="M1651 1518 c-13 -35 -31 -71 -39 -80 -14 -17 -13 -18 10 -18 22 0 25
4 20 25 -4 22 -1 25 26 25 29 0 48 -21 36 -41 -3 -5 20 -9 52 -9 45 0 55 3 46
12 -7 7 -12 35 -11 63 l0 50 22 -57 c13 -31 25 -59 28 -63 4 -3 17 23 30 57
l24 63 3 -48 c2 -27 -2 -55 -9 -63 -9 -12 -6 -14 17 -14 l29 0 0 80 c0 63 -3
79 -13 75 -8 -3 -17 -5 -21 -5 -4 0 -15 -23 -25 -51 -20 -54 -25 -54 -46 1
-18 48 -29 60 -53 60 -16 0 -18 -3 -9 -12 15 -15 16 -124 2 -133 -18 -11 -35
12 -59 80 -13 36 -26 65 -30 65 -3 0 -17 -28 -30 -62z m35 -35 c-13 -13 -28
15 -20 38 l7 24 10 -28 c5 -16 6 -31 3 -34z"/>
<path d="M1960 1566 c5 -5 10 -36 10 -68 0 -62 13 -78 63 -78 35 0 46 19 55
94 7 57 6 66 -7 66 -13 0 -16 -13 -16 -67 l0 -68 -30 0 -30 0 0 66 c0 65 0 66
-28 66 -19 0 -24 -4 -17 -11z"/>
<path d="M2115 1498 l0 -78 58 0 c54 0 57 1 57 25 l0 25 -21 -21 c-36 -36 -54
-22 -57 49 -2 38 1 62 8 62 5 0 10 4 10 8 0 5 -12 9 -27 9 l-28 0 0 -79z"/>
<path d="M1420 1481 c-5 -11 -7 -27 -4 -35 8 -20 48 -31 71 -20 15 6 13 8 -9
12 -27 3 -45 32 -33 52 3 5 2 10 -4 10 -6 0 -15 -9 -21 -19z"/>
<path d="M1436 1383 c-4 -18 -19 -42 -33 -53 -25 -19 -40 -20 -363 -20 -314 0
-338 -1 -353 -18 -21 -23 -22 -46 -2 -62 26 -22 77 13 59 41 -9 15 -22 10 -20
-8 0 -10 -7 -19 -17 -21 -15 -3 -18 1 -15 20 l3 23 345 5 c367 5 374 6 400 56
7 11 10 32 8 45 -4 22 -5 21 -12 -8z"/>
<path d="M2092 1265 c-65 -179 -210 -320 -399 -386 -85 -30 -242 -37 -335 -14
-94 22 -210 82 -281 145 -55 50 -136 160 -157 215 -6 15 -13 25 -16 22 -3 -3
11 -38 33 -79 57 -109 155 -203 274 -261 108 -52 179 -69 292 -69 109 1 178
17 277 64 68 33 101 57 166 122 44 44 92 102 108 129 32 56 79 177 68 177 -4
0 -18 -29 -30 -65z"/>
<path d="M2146 1297 c-3 -18 -21 -64 -40 -102 -82 -171 -207 -284 -388 -351
-96 -35 -267 -44 -373 -20 -194 46 -364 182 -448 358 -36 76 -69 97 -37 24
108 -252 360 -416 639 -416 120 0 202 19 311 72 71 34 100 56 175 132 96 97
132 153 170 266 18 53 21 70 11 70 -8 0 -17 -15 -20 -33z"/>
</g>
</svg>
